<svg
	width="28.646858mm"
	height="28.646858mm"
	viewBox="0 0 28.646858 28.646858"
	version="1.1"
	xmlns="http://www.w3.org/2000/svg">
	<style>
		:root { --color-primary: black; }
		@media (prefers-color-scheme: dark) {
			:root { --color-primary: white; }
		}
	</style>
	<g transform="translate(-74.094131,-87.663696)">
		<path
			style="fill:var(--color-primary)"
			d="m 75.837228,103.84409 q 0,-0.57326 0.286632,-0.8158 0.286633,-0.26458 0.926043,-0.26458 h 0.220486 q 0.06615,0.35278 0.154341,0.8158 0.08819,0.46302 0.264583,0.94809 0.176389,0.48507 0.418924,0.90399 0.242535,0.39688 0.595314,0.63942 0.02205,-0.77171 0.374826,-1.47726 0.374827,-0.72761 0.903994,-1.27882 0.551216,-0.57327 1.190626,-0.9481 0.661459,-0.39687 1.30087,-0.52916 h 0.48507 q 1.058334,0 1.807988,0.48507 0.749653,0.46302 1.234723,1.23472 0.507119,0.74965 0.771702,1.71979 0.264584,0.97014 0.396876,1.98438 0.15434,0.99219 0.176389,1.94028 0.0441,0.92604 0.0441,1.5875 h -1.60955 q -0.132292,-1.32292 -0.33073,-2.53559 -0.06615,-0.48507 -0.176389,-1.01424 -0.110243,-0.55121 -0.242535,-1.01423 -0.132291,-0.48507 -0.286632,-0.88195 -0.15434,-0.41892 -0.352778,-0.70556 -0.08819,-0.0882 -0.242535,-0.24253 -0.132292,-0.15434 -0.286632,-0.30868 -0.154341,-0.15434 -0.286632,-0.26459 -0.132292,-0.11024 -0.154341,-0.11024 -0.661459,-0.17639 -1.146529,0.26459 -0.48507,0.41892 -0.859897,1.14652 -0.374826,0.72761 -0.617361,1.65365 -0.220487,0.92604 -0.374827,1.78594 -0.15434,0.83785 -0.220486,1.47726 -0.06615,0.61736 -0.0882,0.74965 -0.551216,0.39688 -1.036286,0.24254 -0.48507,-0.17639 -0.926042,-0.70556 -0.418924,-0.52917 -0.771702,-1.32292 -0.33073,-0.79375 -0.617362,-1.67569 -0.286632,-0.904 -0.529167,-1.80799 -0.220487,-0.90399 -0.396876,-1.6757 z m 13.07484,-9.017888 q 0.264584,-1.344967 0.97014,-2.116669 0.705556,-0.793751 1.60955,-1.080383 0.926043,-0.286632 1.962329,-0.132292 1.058334,0.132292 1.984377,0.639411 0.948091,0.507118 1.653647,1.322918 0.705556,0.793751 0.992189,1.830036 0.286632,1.014238 0,2.204864 -0.286633,1.190626 -1.30087,2.447398 0.793751,0.286635 1.477259,0.573265 0.683507,0.28663 1.146529,0.70556 0.48507,0.41892 0.749652,1.01423 0.26458,0.59532 0.26458,1.47726 0,0.72761 -0.26458,1.54341 -0.264582,0.8158 -0.749652,1.60955 -0.463022,0.79375 -1.102432,1.52135 -0.617362,0.70556 -1.344967,1.25677 -0.727605,0.55122 -1.499307,0.88195 -0.749653,0.30868 -1.477258,0.30868 -0.48507,0 -0.948091,-0.61736 -0.463022,-0.61736 -0.903994,-1.6316 -0.440973,-1.01424 -0.859897,-2.33716 -0.418924,-1.32291 -0.771702,-2.73403 -0.352778,-1.43316 -0.639411,-2.82222 -0.286632,-1.411114 -0.507118,-2.60174 -0.198438,-1.190626 -0.33073,-2.050523 -0.110243,-0.881945 -0.110243,-1.212675 z m 3.924657,9.547058 q 0,0.37483 0.176389,0.99219 0.176389,0.61736 0.440973,1.23472 0.286632,0.61736 0.617361,1.14653 0.33073,0.50712 0.705557,0.68351 0.30868,0.17639 0.727605,-0.0221 0.418924,-0.22049 0.837848,-0.66146 0.440972,-0.46302 0.837848,-1.03628 0.396875,-0.59532 0.705556,-1.16858 0.330729,-0.57327 0.507119,-1.05834 0.198437,-0.50711 0.198437,-0.7717 0,-0.57326 -0.15434,-0.92604 -0.154341,-0.37483 -0.463022,-0.59531 -0.286632,-0.22049 -0.705556,-0.30869 -0.396875,-0.0882 -0.881945,-0.0882 -0.551216,0 -1.168578,0.17639 -0.617361,0.17639 -1.146529,0.50712 -0.507118,0.33073 -0.881945,0.8158 -0.352778,0.48507 -0.352778,1.08038 z m -1.411113,-7.496535 q 0,0.396875 -0.02205,0.992189 -0.02205,0.573264 0,1.190626 0.02205,0.617361 0.132291,1.23472 0.110244,0.61736 0.396876,1.05834 1.080383,-0.19844 1.874134,-0.74966 0.815799,-0.55121 1.300869,-1.278817 0.507119,-0.749653 0.727605,-1.587501 0.220486,-0.837848 0.15434,-1.631599 -0.0441,-0.793751 -0.374826,-1.45521 -0.308681,-0.661459 -0.881946,-1.014237 -0.573264,-0.374827 -1.389064,-0.374827 -0.815799,0 -1.874133,0.529167 0,0.176389 -0.02205,0.617362 0,0.440973 -0.02205,0.926043 0,0.48507 0,0.926042 0,0.440973 0,0.617362 z"
			aria-label="nB" />
	</g>
</svg>
