<svg
	width="28.646858mm"
	height="28.646858mm"
	viewBox="0 0 28.646858 28.646858"
	version="1.1"
	xmlns="http://www.w3.org/2000/svg">
	<g
		transform="translate(-74.094131,-87.663696)">
		<rect
			style="fill:#fefce8;stroke-width:0.264583"
			width="28.646858"
			height="28.646858"
			x="74.094131"
			y="87.663696" />
		<path
			d="m 75.837228,103.84409 q 0,-0.57326 0.286632,-0.8158 0.286633,-0.26458 0.926043,-0.26458 h 0.220486 q 0.06615,0.35278 0.154341,0.8158 0.08819,0.46302 0.264583,0.94809 0.176389,0.48507 0.418924,0.90399 0.242535,0.39688 0.595314,0.63942 0.02205,-0.77171 0.374826,-1.47726 0.374827,-0.72761 0.903994,-1.27882 0.551216,-0.57327 1.190626,-0.9481 0.661459,-0.39687 1.30087,-0.52916 h 0.48507 q 1.058334,0 1.807988,0.48507 0.749653,0.46302 1.234723,1.23472 0.507119,0.74965 0.771702,1.71979 0.264584,0.97014 0.396876,1.98438 0.15434,0.99219 0.176389,1.94028 0.0441,0.92604 0.0441,1.5875 h -1.60955 q -0.132292,-1.32292 -0.33073,-2.53559 -0.06615,-0.48507 -0.176389,-1.01424 -0.110243,-0.55121 -0.242535,-1.01423 -0.132291,-0.48507 -0.286632,-0.88195 -0.15434,-0.41892 -0.352778,-0.70556 -0.08819,-0.0882 -0.242535,-0.24253 -0.132292,-0.15434 -0.286632,-0.30868 -0.154341,-0.15434 -0.286632,-0.26459 -0.132292,-0.11024 -0.154341,-0.11024 -0.661459,-0.17639 -1.146529,0.26459 -0.48507,0.41892 -0.859897,1.14652 -0.374826,0.72761 -0.617361,1.65365 -0.220487,0.92604 -0.374827,1.78594 -0.15434,0.83785 -0.220486,1.47726 -0.06615,0.61736 -0.0882,0.74965 -0.551216,0.39688 -1.036286,0.24254 -0.48507,-0.17639 -0.926042,-0.70556 -0.418924,-0.52917 -0.771702,-1.32292 -0.33073,-0.79375 -0.617362,-1.67569 -0.286632,-0.904 -0.529167,-1.80799 -0.220487,-0.90399 -0.396876,-1.6757 z m 13.07484,-9.017888 q 0.264584,-1.344967 0.97014,-2.116669 0.705556,-0.793751 1.60955,-1.080383 0.926043,-0.286632 1.962329,-0.132292 1.058334,0.132292 1.984377,0.639411 0.948091,0.507118 1.653647,1.322918 0.705556,0.793751 0.992189,1.830036 0.286632,1.014238 0,2.204864 -0.286633,1.190626 -1.30087,2.447398 0.793751,0.286635 1.477259,0.573265 0.683507,0.28663 1.146529,0.70556 0.48507,0.41892 0.749652,1.01423 0.26458,0.59532 0.26458,1.47726 0,0.72761 -0.26458,1.54341 -0.264582,0.8158 -0.749652,1.60955 -0.463022,0.79375 -1.102432,1.52135 -0.617362,0.70556 -1.344967,1.25677 -0.727605,0.55122 -1.499307,0.88195 -0.749653,0.30868 -1.477258,0.30868 -0.48507,0 -0.948091,-0.61736 -0.463022,-0.61736 -0.903994,-1.6316 -0.440973,-1.01424 -0.859897,-2.33716 -0.418924,-1.32291 -0.771702,-2.73403 -0.352778,-1.43316 -0.639411,-2.82222 -0.286632,-1.411114 -0.507118,-2.60174 -0.198438,-1.190626 -0.33073,-2.050523 -0.110243,-0.881945 -0.110243,-1.212675 z m 3.924657,9.547058 q 0,0.37483 0.176389,0.99219 0.176389,0.61736 0.440973,1.23472 0.286632,0.61736 0.617361,1.14653 0.33073,0.50712 0.705557,0.68351 0.30868,0.17639 0.727605,-0.0221 0.418924,-0.22049 0.837848,-0.66146 0.440972,-0.46302 0.837848,-1.03628 0.396875,-0.59532 0.705556,-1.16858 0.330729,-0.57327 0.507119,-1.05834 0.198437,-0.50711 0.198437,-0.7717 0,-0.57326 -0.15434,-0.92604 -0.154341,-0.37483 -0.463022,-0.59531 -0.286632,-0.22049 -0.705556,-0.30869 -0.396875,-0.0882 -0.881945,-0.0882 -0.551216,0 -1.168578,0.17639 -0.617361,0.17639 -1.146529,0.50712 -0.507118,0.33073 -0.881945,0.8158 -0.352778,0.48507 -0.352778,1.08038 z m -1.411113,-7.496535 q 0,0.396875 -0.02205,0.992189 -0.02205,0.573264 0,1.190626 0.02205,0.617361 0.132291,1.23472 0.110244,0.61736 0.396876,1.05834 1.080383,-0.19844 1.874134,-0.74966 0.815799,-0.55121 1.300869,-1.278817 0.507119,-0.749653 0.727605,-1.587501 0.220486,-0.837848 0.15434,-1.631599 -0.0441,-0.793751 -0.374826,-1.45521 -0.308681,-0.661459 -0.881946,-1.014237 -0.573264,-0.374827 -1.389064,-0.374827 -0.815799,0 -1.874133,0.529167 0,0.176389 -0.02205,0.617362 0,0.440973 -0.02205,0.926043 0,0.48507 0,0.926042 0,0.440973 0,0.617362 z"
			aria-label="nB" />
		<path
			style="fill:#000000;stroke-width:0.264583"
			id="path9"
			d="m 92.691065,109.23968 c -0.31524,-0.0678 -0.600186,-0.23807 -0.879686,-0.39212 -0.111488,-0.0615 -0.44255,-0.25187 -0.331989,-0.18877 0.68258,0.38958 1.365366,0.77879 2.04805,1.16819 -0.547558,-0.35164 -1.064268,-0.74783 -1.554647,-1.17495 -0.22974,-0.18045 -0.425371,-0.39774 -0.637416,-0.59687 -0.04672,-0.0725 -0.09829,-0.14463 -0.142621,-0.21906 -0.861136,-0.49538 -1.722276,-0.99076 -2.583412,-1.48614 -0.0056,2.6e-4 -0.08746,0.007 -0.09659,-2.6e-4 -0.01172,-0.009 -0.0038,-0.0313 -0.01326,-0.0429 -0.01622,-0.02 -0.04629,-0.0225 -0.06926,-0.034 -1.043715,-0.53934 3.410291,1.82871 2.433275,1.42494 -0.131384,-0.0828 -0.228052,-0.20463 -0.330994,-0.31873 -0.219779,-0.22474 -0.415385,-0.47022 -0.612992,-0.71404 -0.06115,-0.0913 -0.03204,-0.0489 -0.08695,-0.12734 0,0 -2.726023,-1.15116 -2.726023,-1.15116 v 0 c 0.07513,0.071 0.03596,0.0326 0.116943,0.11577 0.184637,0.2657 0.425921,0.4908 0.625915,0.74496 0.09055,0.10639 0.166317,0.21597 0.247509,0.32758 0.563036,0.86238 1.74497,1.09219 2.656758,1.56126 0.09524,0.0503 0.03577,0.0186 0.118931,0.0281 0.02304,0.003 0.04647,0.035 0.05911,0.049 -0.838375,-0.48359 -1.676749,-0.96719 -2.515121,-1.45078 0.08186,-0.006 0.169344,0.0634 0.203459,0.13562 0.169976,0.25674 0.493554,0.47722 0.717555,0.68451 0.512046,0.4421 1.042829,0.86072 1.603814,1.23973 0.898036,0.5258 1.794378,1.05451 2.69411,1.57741 0.447778,0.26024 0.917053,0.50773 1.425474,0.62255 z" />
		<path
			style="fill:#000000"
			d="m 92.307441,91.625969 c -0.707118,0.07036 -1.417834,0.03659 -2.126708,0.03203 -0.545013,0.0071 -1.051213,0.203285 -1.539653,0.426313 -0.873895,0.501822 -1.747792,1.003644 -2.62169,1.505466 -0.0399,0.02657 -0.07895,0.05447 -0.1197,0.07971 -0.03093,0.01916 -0.06566,0.03216 -0.0952,0.0534 -0.082,0.05897 -0.161176,0.146979 -0.236395,0.213643 -0.41743,0.364184 -0.85236,0.707062 -1.27649,1.063234 -0.101375,0.117229 -0.246547,0.180821 -0.364273,0.276463 -0.07823,0.06355 -0.153585,0.147907 -0.222022,0.220856 -0.348655,0.376319 -0.719961,0.730403 -1.078683,1.096862 0,0 2.599219,-1.081339 2.599219,-1.081339 v 0 c 0.373706,-0.38944 0.760571,-0.766757 1.171927,-1.116629 0.187643,-0.151154 0.3742,-0.301927 0.545989,-0.471556 0.425754,-0.376442 0.872408,-0.728544 1.324695,-1.072433 0.834096,-0.619475 2.371997,-1.264965 -1.866093,1.029361 0.462814,-0.270309 0.961234,-0.488958 1.497682,-0.554921 0.681302,-0.04752 1.369142,-0.05092 2.049396,0.01273 z" />
	</g>
</svg>
