<svg xmlns="http://www.w3.org/2000/svg" viewBox="0 0 220 46.1">
	<style>
		:root {
			--fill: var(--color-primary, #dd7533);
		}
	</style>
	<title>nerd.Bible</title>
	<path fill="var(--fill)" d="M0 28.2q0-1.29.645-1.84.645-.595 2.08-.595h.496l.347 1.84q.198 1.046.595 2.13t.943 2.03q.546.893 1.34 1.44.05-1.74.843-3.32.843-1.64 2.03-2.88 1.24-1.29 2.68-2.13 1.49-.893 2.93-1.19h1.09q2.38 0 4.07 1.09 1.69 1.04 2.78 2.78 1.14 1.69 1.74 3.87.595 2.18.893 4.46.347 2.23.397 4.37.1 2.08.1 3.57h-3.62q-.299-2.98-.745-5.71-.149-1.09-.397-2.28-.248-1.24-.546-2.28-.298-1.09-.645-1.98-.347-.943-.794-1.59l-.546-.546q-.298-.347-.645-.695-.347-.347-.645-.595t-.347-.248q-1.49-.397-2.58.595-1.09.943-1.93 2.58-.843 1.64-1.39 3.72-.496 2.08-.843 4.02-.347 1.89-.496 3.32-.149 1.39-.198 1.69-1.24.893-2.33.546-1.09-.397-2.08-1.59-.943-1.19-1.74-2.98-.744-1.79-1.39-3.77-.645-2.03-1.19-4.07-.496-2.03-.893-3.77zm27.7 2.93q0-2.68.645-5.36t2.03-4.81q1.44-2.13 3.67-3.47 2.28-1.34 5.51-1.34 1.84 0 3.22.695 1.39.645 2.33 1.74.943 1.09 1.39 2.58.496 1.44.496 3.03 0 2.53-1.19 4.91-1.14 2.38-3.13 4.22-1.93 1.79-4.46 2.73-2.53.893-5.16.397.05 1.44.943 2.33.943.843 2.23 1.29 1.29.446 2.68.595 1.39.1 2.48.1 1.14 0 2.13-.199.992-.198 1.98-.446.992-.248 1.98-.446 1.04-.198 2.18-.198.446 0 .893.05t.843.248q.397.149.645.546.248.347.248.893 0 .943-.695 1.59-.695.595-1.79 1.04-1.04.446-2.33.695-1.29.198-2.53.347-1.19.099-2.23.099-.992.05-1.49.05-3.18 0-5.71-.992-2.53-1.04-4.27-2.83-1.74-1.84-2.68-4.37-.893-2.58-.893-5.71zm5.26-3.22q0 1.74.446 2.53.496.794 2.33.794 1.29 0 2.53-.446 1.24-.496 2.23-1.34 1.04-.843 1.64-1.98.595-1.14.595-2.48 0-.744-.149-1.54-.1-.794-.496-1.44-.397-.695-1.04-1.09-.595-.446-1.59-.446-1.49 0-2.73.695-1.19.645-2.03 1.74-.843 1.04-1.29 2.38-.446 1.29-.446 2.63zm21.4-3.82q0-.446.05-.893.05-.496.198-.843.149-.397.446-.645.347-.248.943-.248.496 0 1.09.794.645.744 1.29 1.93.645 1.14 1.24 2.53.645 1.39 1.09 2.58.496 1.14.794 1.98.298.843.347.893.645-1.74 1.44-3.77t1.93-3.77q1.19-1.79 2.78-2.98 1.64-1.19 3.97-1.19 1.19 0 2.23.397 1.09.347 1.89 1.09.843.695 1.34 1.69.496.992.496 2.28 0 1.09-.893 1.54-.843.446-1.93.446h-.496l-2.13-2.13q-.1 0-.15-.05h-.197q-.05-.05-.15-.05-1.74 0-2.73.993-.942.943-1.44 2.38-.495 1.39-.644 2.98-.1 1.54-.1 2.83 0 .992.198 2.03.198.992.446 1.98.248.943.446 1.98.198.992.198 2.08 0 2.08-2.23 2.08-1.24 0-2.58-1.29-1.34-1.34-2.68-3.37-1.29-2.03-2.48-4.46-1.19-2.48-2.08-4.81-.893-2.33-1.44-4.22-.496-1.89-.496-2.78zm23.2 15q0-2.88 1.44-5.11t3.57-3.87q2.13-1.69 4.61-2.83 2.48-1.19 4.61-1.93 2.13-.794 3.57-1.24 1.44-.496 1.44-.794 0-1.74-.198-3.37-.149-1.69-.347-3.37-.198-1.69-.397-3.32-.149-1.69-.149-3.32v-3.22q2.03-.744 2.88.149.893.893.298 3.08.198 1.09.546 3.42.347 2.33.744 5.26.446 2.93.893 6.15.496 3.22.893 6.2.446 2.93.744 5.26l.446 3.42q.05.248.1.992.049.695.049 1.54.05.794.05 1.49.049.695.049.992-1.89 0-2.58-.149-.645-.149-.843-.595-.149-.446-.149-1.29t-.496-2.33q-1.84 1.44-3.47 2.38-1.64.943-3.27 1.54-1.64.546-3.32.744-1.64.248-3.52.248-1.59 0-3.08-.248-1.44-.298-2.58-.992-1.14-.695-1.84-1.89t-.695-2.98zm4.32-1.04q0 .794.347 1.29t.893.843 1.14.496q.645.1 1.24.1 1.74 0 3.72-.646 2.03-.695 3.72-1.89 1.74-1.24 2.83-2.93 1.14-1.69 1.14-3.67 0-1.54-.546-2.13-.546-.595-2.08-.595-1.59 0-3.72.744-2.08.744-4.07 1.98-1.93 1.24-3.27 2.93-1.34 1.64-1.34 3.47zm29.3 2.88q2.23 0 2.23 2.33-.546 1.44-1.39 1.89-.843.496-1.59.347-.695-.1-1.29-.695-.546-.595-.595-1.34-.05-.744.546-1.44.595-.744 2.08-1.09zm5.02-33q.595-3.03 2.18-4.76 1.59-1.79 3.62-2.43 2.08-.645 4.42-.298 2.38.298 4.46 1.44 2.13 1.14 3.72 2.98 1.59 1.79 2.23 4.12.645 2.28 0 4.96t-2.93 5.51q1.79.645 3.32 1.29t2.58 1.59q1.09.943 1.69 2.28t.595 3.32q0 1.64-.595 3.47t-1.69 3.62q-1.04 1.79-2.48 3.42-1.39 1.59-3.03 2.83t-3.37 1.98q-1.69.695-3.32.695-1.09 0-2.13-1.39t-2.03-3.67-1.93-5.26q-.943-2.98-1.74-6.15-.794-3.22-1.44-6.35-.645-3.18-1.14-5.85-.446-2.68-.744-4.61-.248-1.98-.248-2.73zm8.83 21.5q0 .843.397 2.23.397 1.39.992 2.78.645 1.39 1.39 2.58.744 1.14 1.59 1.54.695.397 1.64-.05.943-.496 1.89-1.49.992-1.04 1.89-2.33.893-1.34 1.59-2.63.744-1.29 1.14-2.38.446-1.14.446-1.74 0-1.29-.347-2.08-.347-.843-1.04-1.34-.645-.496-1.59-.695-.893-.198-1.98-.198-1.24 0-2.63.397t-2.58 1.14q-1.14.744-1.98 1.84-.794 1.09-.794 2.43zm-3.18-16.9q0 .893-.05 2.23-.05 1.29 0 2.68t.298 2.78.893 2.38q2.43-.446 4.22-1.69 1.84-1.24 2.93-2.88 1.14-1.69 1.64-3.57.496-1.89.347-3.67-.099-1.79-.843-3.27-.695-1.49-1.98-2.28-1.29-.843-3.13-.843t-4.22 1.19q0 .397-.05 1.39 0 .992-.049 2.08v3.47zm24.5 13.8v-.943q.05-.695.05-1.44.05-.744.05-1.44.049-.695.049-.992.546-.794 1.39-1.29.893-.496 1.79-.794.149 2.68.843 5.71t1.49 6.1q.794 3.03 1.39 6 .645 2.98.645 5.56 0 2.23-2.28 2.23-1.39 0-2.33-1.14-.943-1.14-1.54-2.88-.546-1.79-.893-3.92-.347-2.18-.496-4.27-.1-2.08-.15-3.82v-2.68zm.695-18.6q.943.397 1.59 1.29.645.893.546 1.64-.05.695-1.09.992-1.04.248-3.47-.595 0-1.34.496-2.33.546-.992 1.93-.992zm15.4 35.1q-1.54-4.46-2.93-8.33-1.34-3.92-2.38-7.64-.992-3.77-1.59-7.64-.595-3.87-.595-8.28V9.7q.05-.943.05-1.93V5.88q.05-.943.05-1.29.445-.992 1.54-1.84 1.14-.843 2.28-.843 0 3.67.098 7.84.1 4.12.595 8.24.546 4.12 1.69 8.09 1.19 3.92 3.32 7.19.05-1.19.1-2.63t.248-2.88q.248-1.44.744-2.78t1.44-2.38q.992-1.04 2.53-1.64 1.59-.595 3.97-.546 2.13 0 3.82.794 1.74.794 2.88 2.18 1.19 1.34 1.79 3.18.645 1.79.645 3.82 0 2.73-1.34 5.36t-3.57 4.71q-2.18 2.08-4.91 3.37-2.73 1.24-5.56 1.24-1.44 0-2.78-.496-1.34-.546-2.13-1.74zm11.8-18.1q-.992.546-2.08 1.29-1.09.744-2.03 2.33-.893 1.54-1.54 4.22t-.794 7.09q.1 0 .496.05.446.05.595.05 1.34 0 3.03-.844 1.74-.843 3.32-2.08 1.64-1.24 2.83-2.73 1.19-1.54 1.44-2.93.149-.843-.347-1.93t-1.34-2.08q-.794-1.04-1.79-1.74-.943-.695-1.79-.695zm11.7-7.84q0-1.44-.198-2.78-.198-1.39-.1-2.43.1-1.09.745-1.74.695-.645 2.48-.645.546 1.14 1.04 3.47.546 2.33 1.04 5.36.496 3.03.943 6.6.446 3.52.794 7.09.397 3.57.645 7.04.298 3.42.446 6.25-1.64 1.09-2.63.149-.992-.943-1.64-3.18-.645-2.28-.992-5.51-.347-3.27-.695-6.75-.298-3.52-.744-6.9-.446-3.42-1.14-6.05zm9.39 14.3q0-2.68.645-5.36t2.03-4.81q1.44-2.13 3.67-3.47 2.28-1.34 5.51-1.34 1.84 0 3.22.695 1.39.645 2.33 1.74.943 1.09 1.39 2.58.496 1.44.496 3.03 0 2.53-1.19 4.91-1.14 2.38-3.13 4.22-1.93 1.79-4.46 2.73-2.53.893-5.16.397.05 1.44.943 2.33.943.843 2.23 1.29 1.29.446 2.68.595 1.39.1 2.48.1 1.14 0 2.13-.199.992-.198 1.98-.446t1.98-.446q1.04-.198 2.18-.198.446 0 .893.05.446.05.843.248.397.149.645.546.248.347.248.893 0 .943-.695 1.59-.695.595-1.79 1.04-1.04.446-2.33.695-1.29.198-2.53.347-1.19.099-2.23.099-.992.05-1.49.05-3.18 0-5.71-.992-2.53-1.04-4.27-2.83-1.74-1.84-2.68-4.37-.893-2.58-.893-5.71zm5.26-3.22q0 1.74.446 2.53.496.794 2.33.794 1.29 0 2.53-.446 1.24-.496 2.23-1.34 1.04-.843 1.64-1.98.595-1.14.595-2.48 0-.744-.149-1.54-.1-.794-.496-1.44-.397-.695-1.04-1.09-.595-.446-1.59-.446-1.49 0-2.73.695-1.19.645-2.03 1.74-.843 1.04-1.29 2.38-.446 1.29-.446 2.63z" aria-label="nerd.Bible"/>
</svg>
