<svg xmlns="http://www.w3.org/2000/svg" width="128" height="128" viewBox="1.6 2 25 25">
	<path fill="#dd7533" d="M1.743 16.18q0-.573.287-.816.287-.265.926-.265h.22q.066.353.154.816.088.463.265.948.176.485.419.904.243.397.595.639.022-.772.375-1.477.375-.728.904-1.279.551-.573 1.191-.948.661-.397 1.301-.529h.485q1.058 0 1.808.485.75.463 1.235 1.235.507.75.772 1.72.265.97.397 1.984.154.992.176 1.94.044.926.044 1.588h-1.61q-.132-1.323-.331-2.536-.066-.485-.176-1.014-.11-.551-.243-1.014-.132-.485-.287-.882-.154-.419-.353-.706-.088-.088-.243-.243-.132-.154-.287-.309-.154-.154-.287-.265-.132-.11-.154-.11-.661-.176-1.147.265-.485.419-.86 1.147-.375.728-.617 1.654-.22.926-.375 1.786-.154.838-.22 1.477-.066.617-.088.75-.551.397-1.036.243-.485-.176-.926-.706-.419-.529-.772-1.323-.331-.794-.617-1.676-.287-.904-.529-1.808-.22-.904-.397-1.676zm13.075-9.018q.265-1.345.97-2.117.706-.794 1.61-1.08.926-.287 1.962-.132 1.058.132 1.984.639.948.507 1.654 1.323.706.794.992 1.83.287 1.014 0 2.205-.287 1.191-1.301 2.447.794.287 1.477.573.684.287 1.147.706.485.419.75 1.014.265.595.265 1.477 0 .728-.265 1.543-.265.816-.75 1.61-.463.794-1.102 1.521-.617.706-1.345 1.257-.728.551-1.499.882-.75.309-1.477.309-.485 0-.948-.617-.463-.617-.904-1.632-.441-1.014-.86-2.337-.419-1.323-.772-2.734-.353-1.433-.639-2.822-.287-1.411-.507-2.602-.198-1.191-.331-2.051-.11-.882-.11-1.213zm3.925 9.547q0 .375.176.992.176.617.441 1.235.287.617.617 1.147.331.507.706.684.309.176.728-.022.419-.22.838-.661.441-.463.838-1.036.397-.595.706-1.169.331-.573.507-1.058.198-.507.198-.772 0-.573-.154-.926-.154-.375-.463-.595-.287-.22-.706-.309-.397-.088-.882-.088-.551 0-1.169.176-.617.176-1.147.507-.507.331-.882.816-.353.485-.353 1.08zm-1.411-7.497q0 .397-.022.992-.022.573 0 1.191.022.617.132 1.235.11.617.397 1.058 1.08-.198 1.874-.75.816-.551 1.301-1.279.507-.75.728-1.588.22-.838.154-1.632-.044-.794-.375-1.455-.309-.661-.882-1.014-.573-.375-1.389-.375-.816 0-1.874.529 0 .176-.022.617 0 .441-.022.926 0 .485 0 .926 0 .441 0 .617z" />
</svg>
