<svg
	 width="101.86469mm"
	 height="20.158072mm"
	 viewBox="0 0 101.86469 20.158072"
	 version="1.1"
	 xmlns="http://www.w3.org/2000/svg">
	<style>
		:root {
			--color-orange-500: #a86437;
			--color-orange-400: #dd7533;

			--color-primary: var(--color-orange-400);
		}
		@media (prefers-color-scheme: dark) {
			:root {
				--color-primary: var(--color-orange-500);
			}
		}
	</style>
	<g transform="translate(-18.33813,-78.271285)">
		<path
			d="m 18.33813,90.672539 q 0,-0.573265 0.286633,-0.8158 0.286632,-0.264583 0.926042,-0.264583 h 0.220487 q 0.06615,0.352778 0.15434,0.815799 0.08819,0.463021 0.264584,0.948091 0.176389,0.48507 0.418924,0.903994 0.242535,0.396876 0.595313,0.639411 0.02205,-0.771703 0.374826,-1.477259 0.374827,-0.727605 0.903994,-1.278821 0.551216,-0.573264 1.190627,-0.948091 0.661459,-0.396875 1.300869,-0.529167 h 0.48507 q 1.058334,0 1.807988,0.48507 0.749653,0.463021 1.234723,1.234723 0.507119,0.749654 0.771703,1.719794 0.264583,0.97014 0.396875,1.984377 0.15434,0.992188 0.176389,1.94028 0.0441,0.926042 0.0441,1.587501 h -1.60955 q -0.132292,-1.322918 -0.330729,-2.535593 -0.06615,-0.48507 -0.17639,-1.014237 -0.110243,-0.551216 -0.242534,-1.014237 -0.132292,-0.48507 -0.286633,-0.881945 -0.15434,-0.418924 -0.352778,-0.705557 -0.08819,-0.08819 -0.242535,-0.242535 -0.132292,-0.15434 -0.286632,-0.30868 -0.15434,-0.154341 -0.286632,-0.264584 -0.132292,-0.110243 -0.154341,-0.110243 -0.661459,-0.176389 -1.146529,0.264583 -0.48507,0.418924 -0.859896,1.146529 -0.374827,0.727605 -0.617362,1.653648 -0.220486,0.926043 -0.374827,1.785939 -0.15434,0.837848 -0.220486,1.477259 -0.06615,0.617361 -0.08819,0.749653 -0.551216,0.396876 -1.036286,0.242535 -0.485069,-0.176389 -0.926042,-0.705556 -0.418924,-0.529167 -0.771702,-1.322918 -0.33073,-0.793751 -0.617362,-1.675696 -0.286632,-0.903994 -0.529167,-1.807988 -0.220487,-0.903994 -0.396876,-1.675696 z m 12.766159,1.300869 q 0,-1.190626 0.286633,-2.381252 0.286632,-1.190627 0.903994,-2.138718 0.63941,-0.948091 1.631598,-1.543404 1.014238,-0.595313 2.447399,-0.595313 0.815799,0 1.433161,0.308681 0.617362,0.286632 1.036286,0.771702 0.418924,0.48507 0.617362,1.146529 0.220486,0.63941 0.220486,1.344966 0,1.124481 -0.529167,2.182815 -0.507119,1.058334 -1.389064,1.874134 -0.859897,0.793751 -1.984377,1.212675 -1.124481,0.396875 -2.293058,0.176389 0.02205,0.63941 0.418924,1.036286 0.418924,0.374826 0.992188,0.573264 0.573265,0.198438 1.190627,0.264584 0.617361,0.0441 1.102431,0.0441 0.507119,0 0.948091,-0.08819 0.440973,-0.08819 0.881946,-0.198437 0.440973,-0.110243 0.881945,-0.198438 0.463021,-0.08819 0.97014,-0.08819 0.198438,0 0.396875,0.02205 0.198438,0.02205 0.374827,0.110243 0.176389,0.06615 0.286632,0.242535 0.110244,0.154341 0.110244,0.396876 0,0.418924 -0.308681,0.705556 -0.308681,0.264584 -0.793751,0.463021 -0.463021,0.198438 -1.036286,0.308681 -0.573264,0.08819 -1.12448,0.154341 -0.529167,0.0441 -0.992189,0.0441 -0.440972,0.02205 -0.661459,0.02205 -1.411112,0 -2.535593,-0.440972 -1.12448,-0.463022 -1.896182,-1.256772 -0.771702,-0.8158 -1.190626,-1.94028 -0.396876,-1.146529 -0.396876,-2.535593 z m 2.337156,-1.433161 q 0,0.771702 0.198437,1.12448 0.220487,0.352778 1.036286,0.352778 0.573265,0 1.12448,-0.198437 0.551216,-0.220487 0.992189,-0.595314 0.463021,-0.374826 0.727605,-0.881945 0.264583,-0.507118 0.264583,-1.102432 0,-0.330729 -0.06615,-0.683507 -0.0441,-0.352778 -0.220486,-0.639411 -0.176389,-0.30868 -0.463021,-0.485069 -0.264584,-0.198438 -0.705556,-0.198438 -0.661459,0 -1.212675,0.308681 -0.529168,0.286632 -0.903994,0.771702 -0.374827,0.463021 -0.573265,1.058334 -0.198437,0.573265 -0.198437,1.168578 z m 9.965983,-1.697745 q 0,-0.198438 0.02205,-0.396875 0.02205,-0.220487 0.08819,-0.374827 0.06615,-0.176389 0.198438,-0.286632 0.15434,-0.110244 0.418924,-0.110244 0.220486,0 0.48507,0.352779 0.286632,0.330729 0.573264,0.859896 0.286633,0.507119 0.551216,1.124481 0.286633,0.617361 0.48507,1.146529 0.220487,0.507118 0.352778,0.881945 0.132292,0.374827 0.154341,0.396875 0.286632,-0.771702 0.63941,-1.675696 0.352778,-0.903994 0.859897,-1.675696 0.529167,-0.793751 1.234723,-1.322918 0.727605,-0.529167 1.763891,-0.529167 0.529167,0 0.992189,0.176389 0.485069,0.15434 0.837848,0.48507 0.374826,0.308681 0.595313,0.749653 0.220486,0.440973 0.220486,1.014238 0,0.485069 -0.396875,0.683507 -0.374827,0.198438 -0.859897,0.198438 h -0.220486 l -0.948092,-0.948091 q -0.0441,0 -0.06615,-0.02205 -0.0441,0 -0.08819,0 -0.02205,-0.02205 -0.06615,-0.02205 -0.771702,0 -1.212675,0.440973 -0.418924,0.418924 -0.63941,1.058334 -0.220487,0.617362 -0.286632,1.322918 -0.0441,0.683508 -0.0441,1.256773 0,0.440972 0.08819,0.903994 0.08819,0.440972 0.198438,0.881945 0.110243,0.418924 0.198437,0.881945 0.08819,0.440973 0.08819,0.926043 0,0.926042 -0.992189,0.926042 -0.551216,0 -1.146529,-0.573264 Q 46.891112,96.978448 46.295799,96.074454 45.722535,95.17046 45.193367,94.090077 44.6642,92.987645 44.267325,91.951359 43.870449,90.915074 43.627914,90.077226 43.407428,89.239377 43.407428,88.842502 Z m 10.78178,6.658687 q 0,-1.27882 0.63941,-2.271009 0.63941,-0.992188 1.587502,-1.719793 0.948091,-0.749654 2.050523,-1.256772 1.102431,-0.529168 2.050523,-0.859897 0.948091,-0.352778 1.587501,-0.551216 0.639411,-0.220486 0.639411,-0.352778 0,-0.771702 -0.08819,-1.499307 -0.06615,-0.749654 -0.15434,-1.499307 -0.08819,-0.749654 -0.17639,-1.477259 -0.06614,-0.749653 -0.06614,-1.477258 v -1.433161 q 0.903994,-0.33073 1.27882,0.06615 0.396876,0.396875 0.132292,1.367015 0.0882,0.48507 0.242535,1.521356 0.154341,1.036285 0.33073,2.337155 0.198437,1.300869 0.396875,2.73403 0.220486,1.433161 0.396875,2.75608 0.198438,1.300869 0.33073,2.337155 0.132292,1.014237 0.198438,1.521355 0.02205,0.110244 0.0441,0.440973 0.02205,0.308681 0.02205,0.683508 0.02205,0.352778 0.02205,0.661459 0.02205,0.308681 0.02205,0.440972 -0.837848,0 -1.146529,-0.06615 -0.286632,-0.06614 -0.374827,-0.264583 -0.06615,-0.198438 -0.06615,-0.573265 0,-0.374826 -0.220486,-1.036285 -0.8158,0.63941 -1.543405,1.058334 -0.727604,0.418924 -1.455209,0.683508 -0.727605,0.242535 -1.477259,0.330729 -0.727605,0.110243 -1.565453,0.110243 -0.705556,0 -1.367015,-0.110243 -0.63941,-0.132292 -1.146529,-0.440973 -0.507119,-0.30868 -0.815799,-0.837848 -0.308681,-0.529167 -0.308681,-1.322918 z m 1.918231,-0.463021 q 0,0.352778 0.15434,0.573265 0.154341,0.220486 0.396876,0.374826 0.242535,0.154341 0.507118,0.220487 0.286632,0.0441 0.551216,0.0441 0.771702,0 1.653648,-0.286632 0.903994,-0.308681 1.653647,-0.837848 0.771702,-0.551216 1.256772,-1.30087 0.507119,-0.749653 0.507119,-1.631599 0,-0.683507 -0.242535,-0.948091 -0.242535,-0.264583 -0.926043,-0.264583 -0.705556,0 -1.653647,0.330729 -0.926043,0.33073 -1.807988,0.881945 -0.859897,0.551216 -1.45521,1.30087 -0.595313,0.727605 -0.595313,1.543404 z m 13.493765,1.278821 q 0.992188,0 0.992188,1.036286 -0.242535,0.63941 -0.617361,0.837848 -0.374827,0.220486 -0.705557,0.15434 -0.308681,-0.0441 -0.573264,-0.308681 -0.242535,-0.264583 -0.264584,-0.595313 -0.02205,-0.330729 0.242535,-0.63941 0.264584,-0.33073 0.926043,-0.48507 z m 2.689932,-14.662341 q 0.264584,-1.344967 0.97014,-2.116669 0.705557,-0.793751 1.609551,-1.080383 0.926042,-0.286633 1.962328,-0.132292 1.058334,0.132292 1.984377,0.63941 0.948091,0.507119 1.653648,1.322918 0.705556,0.793751 0.992188,1.830037 0.286632,1.014237 0,2.204863 -0.286632,1.190626 -1.300869,2.447399 0.79375,0.286632 1.477258,0.573264 0.683508,0.286632 1.146529,0.705556 0.48507,0.418924 0.749654,1.014237 0.264583,0.595314 0.264583,1.477259 0,0.727605 -0.264583,1.543404 -0.264584,0.8158 -0.749654,1.60955 -0.463021,0.793751 -1.102432,1.521356 -0.617361,0.705556 -1.344966,1.256772 -0.727605,0.551216 -1.499307,0.881946 -0.749654,0.30868 -1.477259,0.30868 -0.48507,0 -0.948091,-0.617361 Q 75.95121,96.427232 75.510237,95.412995 75.069264,94.398758 74.65034,93.07584 74.231416,91.752922 73.878638,90.341809 73.52586,88.908648 73.239228,87.519584 72.952595,86.108472 72.732109,84.917845 72.533671,83.727219 72.40138,82.867322 72.291136,81.985377 72.291136,81.654648 Z m 3.924657,9.547058 q 0,0.374827 0.176389,0.992188 0.176389,0.617362 0.440973,1.234724 0.286632,0.617362 0.617362,1.146529 0.330729,0.507118 0.705556,0.683507 0.308681,0.17639 0.727605,-0.02205 0.418924,-0.220487 0.837848,-0.661459 0.440973,-0.463022 0.837848,-1.036286 0.396875,-0.595313 0.705556,-1.168578 0.33073,-0.573264 0.507119,-1.058334 0.198438,-0.507119 0.198438,-0.771702 0,-0.573265 -0.154341,-0.926043 -0.15434,-0.374827 -0.463021,-0.595313 -0.286632,-0.220486 -0.705556,-0.308681 -0.396876,-0.08819 -0.881946,-0.08819 -0.551216,0 -1.168577,0.176389 -0.617362,0.176389 -1.146529,0.507118 -0.507119,0.33073 -0.881946,0.8158 -0.352778,0.48507 -0.352778,1.080383 z M 74.804681,83.70517 q 0,0.396876 -0.02205,0.992189 -0.02205,0.573264 0,1.190626 0.02205,0.617362 0.132292,1.234724 0.110243,0.617361 0.396875,1.058334 1.080383,-0.198438 1.874134,-0.749653 0.8158,-0.551216 1.300869,-1.278821 0.507119,-0.749654 0.727605,-1.587502 0.220487,-0.837848 0.154341,-1.631599 -0.0441,-0.793751 -0.374827,-1.45521 -0.308681,-0.661459 -0.881945,-1.014237 -0.573265,-0.374826 -1.389064,-0.374826 -0.8158,0 -1.874134,0.529167 0,0.176389 -0.02205,0.617361 0,0.440973 -0.02205,0.926043 0,0.48507 0,0.926043 0,0.440972 0,0.617361 z m 11.332997,6.129521 q 0,-0.132292 0,-0.418924 0.02205,-0.308681 0.02205,-0.639411 0.02205,-0.330729 0.02205,-0.63941 0.02205,-0.308681 0.02205,-0.440973 0.242535,-0.352778 0.617362,-0.573264 0.396876,-0.220487 0.793751,-0.352778 0.06615,1.190626 0.374827,2.535592 0.308681,1.344967 0.661459,2.711982 0.352778,1.344967 0.617362,2.667885 0.286632,1.322918 0.286632,2.469447 0,0.992188 -1.014237,0.992188 -0.617362,0 -1.036286,-0.507118 -0.418924,-0.507119 -0.683508,-1.278821 -0.242535,-0.793751 -0.396875,-1.741842 -0.154341,-0.97014 -0.220487,-1.896182 -0.0441,-0.926043 -0.06615,-1.697745 0,-0.771702 0,-1.190626 z m 0.30868,-8.268238 q 0.418924,0.176389 0.705557,0.573264 0.286632,0.396876 0.242535,0.727605 -0.02205,0.308681 -0.48507,0.440973 -0.463022,0.110243 -1.543405,-0.264584 0,-0.595313 0.220487,-1.036285 0.242535,-0.440973 0.859896,-0.440973 z m 7.298097,15.588384 q -0.683508,-1.984377 -1.30087,-3.704171 -0.595313,-1.741842 -1.058334,-3.395489 -0.440973,-1.675696 -0.705556,-3.39549 -0.264584,-1.719793 -0.264584,-3.682121 0,-0.154341 0,-0.551216 0.02205,-0.418924 0.02205,-0.859897 0,-0.440973 0,-0.837848 0.02205,-0.418924 0.02205,-0.573265 0.198438,-0.440972 0.683508,-0.815799 0.507118,-0.374827 1.014237,-0.374827 0,1.631599 0.0441,3.483684 0.0441,1.830037 0.264584,3.660074 0.242535,1.830036 0.749653,3.593927 0.529168,1.741842 1.477259,3.197052 0.02205,-0.529168 0.0441,-1.168578 0.02205,-0.63941 0.110243,-1.278821 0.110243,-0.63941 0.33073,-1.234723 0.220486,-0.595313 0.63941,-1.058335 0.440973,-0.463021 1.12448,-0.727604 0.705557,-0.264584 1.763891,-0.242535 0.948091,0 1.697744,0.352778 0.7717,0.352778 1.27882,0.97014 0.52917,0.595313 0.79375,1.411112 0.28664,0.793751 0.28664,1.697745 0,1.212675 -0.59532,2.381252 -0.59531,1.168578 -1.5875,2.094621 -0.97014,0.926042 -2.182815,1.499307 -1.212675,0.551215 -2.469447,0.551215 -0.63941,0 -1.234723,-0.220486 -0.595313,-0.242535 -0.948091,-0.771702 z m 5.225526,-8.047751 q -0.440973,0.242535 -0.926043,0.573264 -0.48507,0.33073 -0.903994,1.036286 -0.396875,0.683508 -0.683507,1.874134 -0.286633,1.190626 -0.352779,3.152954 0.0441,0 0.220487,0.02205 0.198437,0.02205 0.264583,0.02205 0.595313,0 1.344967,-0.374827 0.771702,-0.374827 1.477258,-0.926043 0.727607,-0.551216 1.256777,-1.212675 0.52916,-0.683507 0.63941,-1.300869 0.0661,-0.374827 -0.15434,-0.859897 -0.22049,-0.48507 -0.59532,-0.926042 -0.35278,-0.463022 -0.793748,-0.771702 -0.418924,-0.308681 -0.793751,-0.308681 z m 5.666509,-3.483684 q 0,-0.639411 -0.0882,-1.234724 -0.0882,-0.617362 -0.0441,-1.080383 0.0441,-0.48507 0.33073,-0.771702 0.30868,-0.286632 1.10243,-0.286632 0.24254,0.507118 0.46303,1.543404 0.24253,1.036286 0.46302,2.381252 0.22048,1.344967 0.41892,2.932469 0.19844,1.565453 0.35278,3.152954 0.17639,1.587502 0.28663,3.130906 0.13229,1.521356 0.19844,2.778128 -0.72761,0.48507 -1.16858,0.06615 -0.44097,-0.418924 -0.7276,-1.411113 -0.28664,-1.014237 -0.44098,-2.447398 -0.15434,-1.45521 -0.30868,-2.998614 -0.13229,-1.565453 -0.33073,-3.06476 -0.19843,-1.521356 -0.50711,-2.689933 z m 4.63021,6.350006 q 0,-1.190626 0.28663,-2.381252 0.28663,-1.190627 0.90399,-2.138718 0.63941,-0.948091 1.6316,-1.543404 1.01424,-0.595313 2.4474,-0.595313 0.8158,0 1.43316,0.308681 0.61736,0.286632 1.03629,0.771702 0.41892,0.48507 0.61736,1.146529 0.22048,0.63941 0.22048,1.344966 0,1.124481 -0.52916,2.182815 -0.50712,1.058334 -1.38907,1.874134 -0.85989,0.793751 -1.98437,1.212675 -1.12448,0.396875 -2.29306,0.176389 0.0221,0.63941 0.41892,1.036286 0.41893,0.374826 0.99219,0.573264 0.57327,0.198438 1.19063,0.264584 0.61736,0.0441 1.10243,0.0441 0.50712,0 0.94809,-0.08819 0.44097,-0.08819 0.88195,-0.198437 0.44097,-0.110243 0.88194,-0.198438 0.46302,-0.08819 0.97014,-0.08819 0.19844,0 0.39688,0.02205 0.19843,0.02205 0.37482,0.110243 0.17639,0.06615 0.28664,0.242535 0.11024,0.154341 0.11024,0.396876 0,0.418924 -0.30868,0.705556 -0.30868,0.264584 -0.79375,0.463021 -0.46302,0.198438 -1.03629,0.308681 -0.57326,0.08819 -1.12448,0.154341 -0.52917,0.0441 -0.99219,0.0441 -0.44097,0.02205 -0.66146,0.02205 -1.41111,0 -2.53559,-0.440972 -1.12448,-0.463022 -1.89618,-1.256772 -0.7717,-0.8158 -1.19063,-1.94028 -0.39687,-1.146529 -0.39687,-2.535593 z m 2.33715,-1.433161 q 0,0.771702 0.19844,1.12448 0.22049,0.352778 1.03628,0.352778 0.57327,0 1.12449,-0.198437 0.55121,-0.220487 0.99218,-0.595314 0.46303,-0.374826 0.72761,-0.881945 0.26458,-0.507118 0.26458,-1.102432 0,-0.330729 -0.0661,-0.683507 -0.0441,-0.352778 -0.22049,-0.639411 -0.17639,-0.30868 -0.46302,-0.485069 -0.26458,-0.198438 -0.70556,-0.198438 -0.66146,0 -1.21267,0.308681 -0.52917,0.286632 -0.904,0.771702 -0.37482,0.463021 -0.57326,1.058334 -0.19844,0.573265 -0.19844,1.168578 z"
			style="fill:var(--color-primary)"
			aria-label="nerd.Bible" />
	</g>
</svg>
